<svg id="Layer_2" xmlns="http://www.w3.org/2000/svg" viewBox="0 0 737 400"><defs><style>.cls-1{fill:#9cc;}.cls-2,.cls-3,.cls-4,.cls-5,.cls-6,.cls-7,.cls-8,.cls-9{fill-rule:evenodd;}.cls-2,.cls-10{fill:#969594;}.cls-3{fill:#c2c1c1;}.cls-4{fill:#404546;}.cls-5{fill:#df9058;}.cls-6{fill:#f2673a;}.cls-7{fill:#3c82af;}.cls-8{fill:#edaa7d;}.cls-9{fill:#f3f3f3;}.cls-11{fill:#231f20;}</style></defs><rect class="cls-1" width="737" height="400"></rect><g><path class="cls-11" d="m79.68,165.47h-9.84l-2.16,7.1h-8.64l11.14-33.51h9.94l10.66,33.51h-9.31l-1.78-7.1Zm-4.61-19.59h-.1l-3.6,13.15h6.62l-2.93-13.15Z"></path><path class="cls-11" d="m102.96,172.58h-9.02v-33.51h11.14c6.96,0,12.29,2.64,12.29,11.09,0,6.77-4.32,10.71-10.66,10.71h-3.74v11.71Zm1.2-18.15c2.4,0,4.18-1.68,4.18-4.37,0-3.12-1.68-4.56-4.42-4.56h-1.34v8.93h1.58Z"></path><path class="cls-11" d="m130.51,172.58h-9.02v-33.51h11.14c6.96,0,12.29,2.64,12.29,11.09,0,6.77-4.32,10.71-10.66,10.71h-3.74v11.71Zm1.2-18.15c2.4,0,4.18-1.68,4.18-4.37,0-3.12-1.68-4.56-4.42-4.56h-1.34v8.93h1.58Z"></path><path class="cls-11" d="m149.04,139.07h9.02v26.69h11.04v6.82h-20.07v-33.51Z"></path><path class="cls-11" d="m175.1,160.38l-10.13-21.31h10.27l4.61,12.87h.1l4.37-12.87h9.94l-10.13,21.31v12.19h-9.02v-12.19Z"></path><path class="cls-11" d="m197.27,139.07h9.02v33.51h-9.02v-33.51Z"></path><path class="cls-11" d="m220.22,149.34h-.19v23.23h-7.87v-33.51h10.47l8.78,23.09h.1v-23.09h7.87v33.51h-10.56l-8.59-23.23Z"></path><path class="cls-11" d="m259.44,153.18h13.01v18.1c-1.92.96-5.86,1.87-10.13,1.87-10.32,0-18.1-5.95-18.1-17.14,0-10.13,5.95-17.52,18.53-17.52,4.37,0,7.3.86,8.69,1.34l-.48,7.15c-1.73-1.1-4.27-1.87-7.34-1.87-6.96,0-10.08,4.42-10.08,10.94s3.31,10.27,7.54,10.27c1.15,0,2.21-.14,2.93-.58v-6.34h-4.56v-6.24Z"></path><path class="cls-11" d="m37.99,180.07h19.78v6.62h-10.94v6.82h10.46v6.62h-10.46v13.44h-8.83v-33.51Z"></path><path class="cls-11" d="m75.86,179.49c7.3,0,14.88,4.9,14.88,17.33s-7.58,17.33-14.88,17.33-14.88-4.9-14.88-17.33,7.58-17.33,14.88-17.33Zm-.1,28.23h.05c3.79,0,5.62-4.27,5.62-10.9s-1.82-10.9-5.62-10.9-5.66,4.37-5.66,10.9,1.82,10.9,5.62,10.9Z"></path><path class="cls-11" d="m109.08,204.07c-.86-3.22-2.35-3.6-3.79-3.6h-.48v13.1h-9.02v-33.51h13.39c6.77,0,10.61,2.83,10.61,9.02,0,4.94-3.5,6.96-6.43,7.68v.14c1.92.62,3.17,1.54,4.51,6.19l3.02,10.46h-9.31l-2.5-9.5Zm-2.02-10.03c1.92,0,3.7-1.44,3.7-3.6,0-2.3-1.2-3.94-3.84-3.94h-2.5v7.54h2.64Z"></path><path class="cls-11" d="m153.52,206.47h-9.84l-2.16,7.1h-8.64l11.14-33.51h9.94l10.66,33.51h-9.31l-1.78-7.1Zm-4.61-19.59h-.1l-3.6,13.15h6.62l-2.93-13.15Z"></path><path class="cls-11" d="m180.21,180.07h9.02v26.69h11.04v6.82h-20.07v-33.51Z"></path><path class="cls-11" d="m218.08,179.49c7.3,0,14.88,4.9,14.88,17.33s-7.58,17.33-14.88,17.33-14.88-4.9-14.88-17.33,7.58-17.33,14.88-17.33Zm-.1,28.23h.05c3.79,0,5.62-4.27,5.62-10.9s-1.82-10.9-5.62-10.9-5.66,4.37-5.66,10.9,1.82,10.9,5.62,10.9Z"></path><path class="cls-11" d="m254.9,206.47h-9.84l-2.16,7.1h-8.64l11.14-33.51h9.94l10.66,33.51h-9.31l-1.78-7.1Zm-4.61-19.59h-.1l-3.6,13.15h6.62l-2.93-13.15Z"></path><path class="cls-11" d="m277.03,190.34h-.19v23.23h-7.87v-33.51h10.47l8.78,23.09h.1v-23.09h7.87v33.51h-10.56l-8.59-23.23Z"></path></g><g><polygon class="cls-9" points="315.21 330.84 362.34 100.72 595.69 100.72 643.73 330.47 315.21 330.84"></polygon><polygon class="cls-3" points="426.29 155.06 580.01 155.06 580.98 161.06 425.77 161.06 426.29 155.06"></polygon><polygon class="cls-3" points="425.32 166.77 581.88 166.77 582.86 173 424.79 173 425.32 166.77"></polygon><polygon class="cls-3" points="424.26 178.93 583.83 178.93 584.88 185.38 423.74 185.38 424.26 178.93"></polygon><polygon class="cls-3" points="423.21 191.54 585.86 191.54 586.91 198.29 422.69 198.29 423.21 191.54"></polygon><polygon class="cls-3" points="422.09 204.67 587.96 204.67 589.09 211.65 421.56 211.65 422.09 204.67"></polygon><path class="cls-2" d="m384.33,154.99l18.69.08c2.93,0,5.25,1.28,5.1,2.93h0c-.23,1.65-2.85,3-5.85,3h-18.84c-3,0-5.25-1.35-5.03-3h0c.3-1.65,2.93-3,5.93-3Z"></path><path class="cls-2" d="m382.53,166.69h14.26c3.08,0,5.4,1.43,5.18,3.15h0c-.23,1.73-2.85,3.15-5.93,3.15h-14.41c-3.08,0-5.4-1.43-5.1-3.15h0c.3-1.73,3-3.15,6-3.15Z"></path><path class="cls-2" d="m380.73,178.93h19.36c3.08,0,5.48,1.43,5.33,3.23h0c-.23,1.73-3,3.23-6.15,3.23h-19.51c-3.15,0-5.48-1.5-5.18-3.3h0c.23-1.73,3.08-3.15,6.15-3.15Z"></path><path class="cls-2" d="m378.78,191.54h15.61c3.23,0,5.63,1.5,5.4,3.38h0c-.23,1.8-3,3.38-6.23,3.38h-15.76c-3.15,0-5.55-1.58-5.33-3.38h0c.3-1.88,3.15-3.38,6.3-3.38Z"></path><path class="cls-2" d="m376.83,204.67h17.64c3.23,0,5.7,1.58,5.48,3.53h0c-.23,1.88-3.08,3.45-6.38,3.45h-17.79c-3.23,0-5.7-1.58-5.4-3.53h0c.38-1.88,3.23-3.45,6.45-3.45Z"></path><path class="cls-2" d="m505.7,239.05h77.83c5.48,0,10.36,2.78,10.96,6.23h0c.53,3.45-3.53,6.3-9.16,6.3h-79.18c-5.55.08-10.21-2.85-10.28-6.3h0c-.08-3.45,4.35-6.23,9.83-6.23Z"></path><path class="cls-10" d="m507.65,292.94c-2.7,0-4.95-1.5-5.03-3.3s2.1-3.23,4.8-3.23h83.01c2.7,0,5.1,1.43,5.4,3.23s-1.73,3.3-4.43,3.3h-83.76Z"></path><path class="cls-10" d="m497.74,274.85h0c.9-.9,2.1-1.8,3.53-2.7,1.35-.9,2.93-1.73,4.58-2.63,8.48-4.35,20.42-8.18,28.52-9.53h.08c.83-.08,1.88-.23,3-.38,3.45-.53,8.03-1.28,11.33-.68,3.45.53,5.55,2.25,4.28,6.15-1.35,4.2.08,6.08,2.93,6.6,7.36,1.28,23.19-4.8,32.65-8.48,2.63-.98,4.8-1.8,6.23-2.25.38.45.75.9,1.2,1.35-1.35.45-3.45,1.28-6,2.25-9.83,3.75-26.27,10.06-34.53,8.63-4.28-.75-6.45-3.23-4.8-8.48.9-2.78-.3-3.98-2.4-4.35-2.78-.45-6.98.23-10.28.68-1.13.15-2.18.38-3,.45-11.33,1.88-23.72,6.3-32.12,11.78-1.13.75-2.25,1.58-3.23,2.48-.68-.23-1.35-.6-1.95-.9Z"></path><path class="cls-6" d="m389.66,114.61c8.18,0,14.49,3.45,13.89,7.73-.53,4.35-7.88,7.96-16.29,7.96s-14.64-3.68-13.89-7.96c.75-4.28,8.03-7.73,16.29-7.73Z"></path><path class="cls-2" d="m435.3,116.33l88.27.08c2.85,0,5.33,1.13,5.4,2.63h0c.15,1.5-2.1,2.7-4.95,2.7h-89.09c-2.93,0-5.18-1.28-5.03-2.7h0c.15-1.5,2.55-2.7,5.4-2.7Z"></path><path class="cls-2" d="m452.34,126.09h54.19c2.93,0,5.33,1.2,5.4,2.7h0c.08,1.58-2.18,2.78-5.1,2.85l-54.72-.08h0c-2.93,0-5.25-1.2-5.18-2.78h0c.08-1.5,2.55-2.7,5.4-2.7Z"></path><polygon class="cls-7" points="315.21 330.84 317.76 318.46 641.18 318.46 643.73 330.47 315.21 330.84"></polygon></g><g><path class="cls-5" d="m636,251.21c-7.21,5.48-14.56,9.91-21.47,16.51-11.93,12.01-16.29,37.08-38.58,31.52-6.38-9.98,3.75-16.81,5.55-24.47,1.73-13.43,20.27-38.95,37.98-62.82,0,0,16.06,38.95,16.51,39.25Z"></path><path class="cls-8" d="m688.39,332.64c-1.5-3.98-2.78-8.03-3.98-12.16-3.23-18.31-3.53-29.95-6-48.41-1.43-7.13,2.1-16.14-4.28-21.39-1.43-5.85,6-16.36-19.29-22.44-16.66-11.71-31.52-24.02-50.06-35.05-5.55-2.25-13.06.15-16.81,10.13-3.3,7.81-6.15,15.46-9.98,23.34l-19.14,37.6c3.38,9.68,4.05,4.65,6.68,13.89,12.76,1.28,36.55-39.33,39.85-46.68.38-.38,1.43,7.43,4.95,21.17-2.1,5.4-4.95,10.66-11.41,19.14-1.88,1.95-12.46,7.96-13.66,10.21-2.7,3.83-13.36,12.16-16.51,15.39,4.05,13.89,8.48,27.62,16.14,41.88,11.71,15.76,20.11,17.71,26.72,24.84,2.18,2.4,4.13,4.65,5.85,6.68l70.93-38.13Z"></path><path class="cls-4" d="m581.96,249.33l83.39-54.34c1.88-1.28,4.58-1.58,6.76-.98,6.38,1.65,8.26,8.11,7.66,13.43-.38,2.85-4.28,5.7-6.83,7.21l-86.84,51.11c-7.13,2.4-14.49-.08-18.31-2.33.23,0,4.8-7.96,14.19-14.11Z"></path><path class="cls-8" d="m604.32,282.2c-6.83-7.66-14.19-14.11-20.49-23.04-10.81-15.99-10.43-44.81-36.55-43.38-9.31,9.83.6,19.59,1.05,28.52-.9,15.46,20.34,63.05,35.13,93.52,0,0,20.27-55.39,20.87-55.62Z"></path><path class="cls-9" d="m737.25,407.17c-16.66-23.34-35.2-50.29-48.79-74.38-32.65-2.78-58.47,7.13-88.19,47.81,5.25,8.03,10.13,17.04,14.64,26.57h122.34Z"></path><path class="cls-4" d="m737.55,407.17c-11.18-16.66-21.99-33.63-31-49.54-36.18-3-65.07,7.36-97.65,49.54h128.65Z"></path></g></svg>